<?xml version="1.0" encoding="UTF-8"?>
<!-- Generator: Adobe Illustrator 16.0.3, SVG Export Plug-In . SVG Version: 6.00 Build 0)  -->
<!DOCTYPE svg PUBLIC "-//W3C//DTD SVG 1.1//EN" "http://www.w3.org/Graphics/SVG/1.1/DTD/svg11.dtd">
<svg version="1.1" id="Ebene_1" xmlns="http://www.w3.org/2000/svg" xmlns:xlink="http://www.w3.org/1999/xlink" x="0px" y="0px" width="180px" height="50px" viewBox="0 0 180 50" enable-background="new 0 0 180 50" xml:space="preserve">
<g>
	<polygon fill="#1D1D1B" points="19.532,0 13.631,0 1.725,35.716 6.745,35.716 16.167,5.124 16.27,5.124 25.587,35.716    31.488,35.716  "/>
	<path fill="#1D1D1B" d="M35.32,35.716V0h5.693v31.99h13.2v3.727H35.32z"/>
	<path fill="#1D1D1B" d="M57.578,35.716V0h5.694v31.99h13.2v3.727H57.578z"/>
	<path fill="#1D1D1B" d="M79.836,35.716V0h7.351c7.194,0,13.82,1.087,13.82,9.835c0,8.697-6.677,10.145-13.82,10.145H85.53v15.736   H79.836z M87.187,16.565c4.969,0,8.127-1.037,8.127-6.73c0-5.538-3.313-6.418-8.127-6.418H85.53v13.148H87.187z"/>
	<polygon fill="#1D1D1B" points="139.521,0 133.619,0 122.956,31.989 109.859,31.989 109.859,0 104.166,0 104.166,35.716    126.734,35.716 136.155,5.124 136.258,5.124 145.576,35.716 151.478,35.716  "/>
	<path fill="#1D1D1B" d="M174.099,35.716L159.502,6.625h-0.103v29.091h-4.712V0h6.316l14.183,28.262h0.104V0H180v35.716H174.099z"/>
	<g>
		<path fill="#1D1D1B" d="M50.94,49.879l2.709-7.053h1.004l2.886,7.053h-1.063l-0.822-2.135h-2.95l-0.773,2.135H50.94z     M52.976,46.983h2.391L54.63,45.03c-0.224-0.593-0.391-1.081-0.5-1.464c-0.09,0.453-0.216,0.902-0.379,1.348L52.976,46.983z"/>
		<path fill="#1D1D1B" d="M60.472,49.879v-7.053h0.957l3.704,5.537v-5.537h0.895v7.053h-0.957l-3.705-5.542v5.542H60.472z"/>
		<path fill="#1D1D1B" d="M67.615,49.879v-7.053h5.1v0.833h-4.166v2.16h3.901v0.828h-3.901v2.4h4.33v0.831H67.615z"/>
		<path fill="#1D1D1B" d="M74.139,49.879v-7.053h1.404l1.671,4.994c0.152,0.466,0.265,0.813,0.335,1.044    c0.08-0.257,0.207-0.634,0.375-1.131l1.689-4.907h1.256v7.053H79.97v-5.901l-2.05,5.901h-0.842l-2.04-6.003v6.003H74.139z"/>
		<path fill="#1D1D1B" d="M82.394,49.879v-7.053h5.1v0.833h-4.166v2.16h3.901v0.828h-3.901v2.4h4.329v0.831H82.394z"/>
		<path fill="#1D1D1B" d="M90.741,49.879v-6.22h-2.323v-0.833h5.59v0.833h-2.334v6.22H90.741z"/>
		<path fill="#1D1D1B" d="M94.646,47.614l0.881-0.078c0.042,0.353,0.139,0.643,0.291,0.869c0.151,0.225,0.389,0.408,0.71,0.549    c0.32,0.139,0.682,0.208,1.083,0.208c0.355,0,0.669-0.053,0.942-0.157c0.272-0.107,0.475-0.252,0.608-0.437    c0.133-0.186,0.199-0.386,0.199-0.604c0-0.22-0.063-0.414-0.191-0.58c-0.13-0.165-0.342-0.302-0.636-0.416    c-0.189-0.072-0.607-0.188-1.255-0.343c-0.648-0.155-1.102-0.304-1.361-0.44c-0.338-0.177-0.588-0.396-0.754-0.656    c-0.165-0.262-0.247-0.554-0.247-0.879c0-0.355,0.101-0.688,0.304-0.998c0.2-0.31,0.495-0.544,0.883-0.704    c0.39-0.161,0.82-0.241,1.296-0.241c0.521,0,0.982,0.085,1.382,0.252c0.4,0.169,0.707,0.418,0.923,0.744    c0.214,0.327,0.329,0.697,0.345,1.11l-0.894,0.068c-0.049-0.445-0.212-0.782-0.489-1.011c-0.277-0.228-0.688-0.341-1.229-0.341    c-0.564,0-0.977,0.104-1.233,0.31c-0.26,0.208-0.388,0.457-0.388,0.749c0,0.254,0.091,0.461,0.273,0.624    c0.181,0.164,0.648,0.331,1.406,0.504c0.76,0.172,1.279,0.322,1.562,0.45c0.412,0.189,0.715,0.429,0.91,0.72    c0.196,0.289,0.293,0.623,0.293,1.002c0,0.375-0.108,0.729-0.322,1.061c-0.215,0.332-0.522,0.592-0.926,0.774    C98.61,49.907,98.157,50,97.654,50c-0.638,0-1.174-0.094-1.605-0.279c-0.431-0.186-0.769-0.466-1.015-0.84    C94.789,48.508,94.658,48.084,94.646,47.614z"/>
		<path fill="#1D1D1B" d="M106.568,47.406l0.934,0.236c-0.196,0.767-0.548,1.351-1.057,1.753c-0.508,0.402-1.131,0.604-1.864,0.604    c-0.76,0-1.378-0.155-1.854-0.465c-0.476-0.31-0.839-0.758-1.087-1.344c-0.248-0.588-0.373-1.218-0.373-1.891    c0-0.735,0.142-1.374,0.422-1.922s0.68-0.963,1.197-1.246c0.518-0.285,1.087-0.427,1.711-0.427c0.705,0,1.298,0.18,1.778,0.539    c0.481,0.359,0.817,0.864,1.006,1.516l-0.918,0.217c-0.165-0.513-0.402-0.888-0.713-1.122c-0.311-0.233-0.702-0.351-1.174-0.351    c-0.542,0-0.994,0.13-1.358,0.39c-0.364,0.261-0.62,0.609-0.769,1.046c-0.146,0.438-0.221,0.89-0.221,1.354    c0,0.601,0.088,1.122,0.263,1.57s0.446,0.781,0.814,1.004c0.369,0.222,0.769,0.332,1.199,0.332c0.522,0,0.965-0.15,1.327-0.453    C106.194,48.447,106.44,48,106.568,47.406z"/>
		<path fill="#1D1D1B" d="M108.68,49.879v-7.053h0.934v2.897h3.666v-2.897h0.934v7.053h-0.934v-3.323h-3.666v3.323H108.68z"/>
		<path fill="#1D1D1B" d="M115.785,49.879v-7.053h5.101v0.833h-4.167v2.16h3.902v0.828h-3.902v2.4h4.33v0.831H115.785z"/>
		<path fill="#1D1D1B" d="M122.3,49.879v-7.053h0.934v3.497l3.502-3.497h1.266l-2.96,2.858l3.089,4.194h-1.231l-2.511-3.569    l-1.154,1.125v2.444H122.3z"/>
		<path fill="#1D1D1B" d="M136.679,47.406l0.934,0.236c-0.195,0.767-0.548,1.351-1.056,1.753c-0.509,0.402-1.13,0.604-1.864,0.604    c-0.76,0-1.378-0.155-1.854-0.465c-0.476-0.31-0.838-0.758-1.088-1.344c-0.248-0.588-0.373-1.218-0.373-1.891    c0-0.735,0.142-1.374,0.422-1.922s0.68-0.963,1.197-1.246c0.518-0.285,1.089-0.427,1.711-0.427c0.705,0,1.299,0.18,1.78,0.539    s0.816,0.864,1.006,1.516l-0.92,0.217c-0.163-0.513-0.4-0.888-0.712-1.122c-0.311-0.233-0.703-0.351-1.174-0.351    c-0.541,0-0.994,0.13-1.358,0.39c-0.363,0.261-0.621,0.609-0.769,1.046c-0.146,0.438-0.221,0.89-0.221,1.354    c0,0.601,0.087,1.122,0.263,1.57c0.174,0.448,0.447,0.781,0.814,1.004c0.368,0.222,0.77,0.332,1.198,0.332    c0.523,0,0.965-0.15,1.327-0.453C136.307,48.447,136.551,48,136.679,47.406z"/>
		<path fill="#1D1D1B" d="M138.479,46.444c0-1.17,0.313-2.086,0.941-2.749c0.628-0.662,1.441-0.993,2.435-0.993    c0.651,0,1.239,0.154,1.762,0.466s0.922,0.745,1.194,1.302c0.274,0.557,0.411,1.188,0.411,1.894c0,0.715-0.144,1.354-0.433,1.919    s-0.697,0.992-1.227,1.282c-0.53,0.29-1.099,0.436-1.712,0.436c-0.664,0-1.258-0.161-1.779-0.481    c-0.525-0.321-0.921-0.758-1.19-1.314C138.613,47.65,138.479,47.063,138.479,46.444z M139.44,46.458    c0,0.852,0.228,1.521,0.684,2.009c0.459,0.49,1.032,0.734,1.721,0.734c0.703,0,1.281-0.247,1.734-0.741    c0.454-0.494,0.681-1.193,0.681-2.103c0-0.573-0.096-1.074-0.29-1.503c-0.195-0.428-0.479-0.761-0.853-0.995    c-0.373-0.236-0.792-0.354-1.257-0.354c-0.66,0-1.229,0.228-1.705,0.681C139.677,44.64,139.44,45.397,139.44,46.458z"/>
		<path fill="#1D1D1B" d="M146.396,49.879v-7.053h1.405l1.668,4.994c0.155,0.466,0.267,0.813,0.337,1.044    c0.081-0.257,0.205-0.634,0.377-1.131l1.688-4.907h1.256v7.053h-0.901v-5.901l-2.048,5.901h-0.842l-2.04-6.003v6.003H146.396z"/>
		<path fill="#1D1D1B" d="M154.632,49.879v-7.053h2.661c0.469,0,0.826,0.023,1.074,0.067c0.346,0.059,0.636,0.168,0.869,0.33    c0.234,0.161,0.423,0.389,0.566,0.681c0.142,0.293,0.214,0.612,0.214,0.963c0,0.599-0.19,1.105-0.572,1.521    c-0.381,0.415-1.072,0.624-2.069,0.624h-1.808v2.866H154.632z M155.567,46.18h1.821c0.604,0,1.032-0.112,1.285-0.337    c0.254-0.225,0.381-0.54,0.381-0.947c0-0.296-0.074-0.548-0.225-0.759c-0.148-0.209-0.345-0.349-0.59-0.416    c-0.156-0.04-0.446-0.062-0.869-0.062h-1.804V46.18z"/>
		<path fill="#1D1D1B" d="M159.698,49.879l2.709-7.053h1.005l2.886,7.053h-1.061l-0.824-2.135h-2.949l-0.773,2.135H159.698z     M161.733,46.983h2.392l-0.736-1.953c-0.224-0.593-0.392-1.081-0.501-1.464c-0.09,0.453-0.215,0.902-0.379,1.348L161.733,46.983z"/>
		<path fill="#1D1D1B" d="M167.034,49.879v-7.053h0.959l3.704,5.537v-5.537h0.895v7.053h-0.957l-3.704-5.542v5.542H167.034z"/>
		<path fill="#1D1D1B" d="M176.147,49.879v-2.987l-2.719-4.065h1.137l1.391,2.127c0.256,0.398,0.495,0.796,0.716,1.192    c0.212-0.368,0.469-0.783,0.771-1.246l1.366-2.073h1.087l-2.814,4.065v2.987H176.147z"/>
	</g>
</g>
</svg>