<svg id="Ebene_1" data-name="Ebene 1" xmlns="http://www.w3.org/2000/svg" viewBox="0 0 240 50"><defs><style>.cls-1{fill:#696969;}.cls-2{fill:#00abf5;fill-rule:evenodd;}</style></defs><polygon class="cls-1" points="235.11 31.12 228.75 24.08 239.11 13.26 232.4 13.26 223.36 22.93 223.36 13.26 218.23 13.26 218.23 31.12 218.23 36.54 223.36 36.54 223.36 31.12 223.36 25.49 228.18 31.12 232.83 36.54 240 36.54 235.11 31.12"/><polygon class="cls-1" points="152.09 31.12 152.09 36.54 157.03 36.54 157.03 31.12 157.03 20.7 152.09 20.7 152.09 31.12"/><path class="cls-1" d="M112.48,12.67c-7.26,0-12.56,4.77-12.56,12.23a12.83,12.83,0,0,0,1.49,6.22h0c2.07,3.79,6.11,6,11.07,6s9-2.22,11.07-6h0A12.83,12.83,0,0,0,125,24.9C125,17.44,119.75,12.67,112.48,12.67Zm4.28,18.45a7.8,7.8,0,0,1-8.56,0h0a7.38,7.38,0,0,1-3-6.22c0-4.34,2.86-7.49,7.23-7.49s7.24,3.15,7.24,7.49a7.38,7.38,0,0,1-3,6.22Z"/><path class="cls-1" d="M85.05,19.81c0-1.75,2-2.4,3.45-2.4A5,5,0,0,1,92.22,19l3.52-3.85a10.56,10.56,0,0,0-7.14-2.43c-4.57,0-8.88,2.6-8.88,7.56,0,7.76,10.92,5.46,10.92,9.74a1.89,1.89,0,0,1-.38,1.15h0a4,4,0,0,1-3.17,1.28,5.71,5.71,0,0,1-3.58-1.29h0a5.05,5.05,0,0,1-.88-.91l-.84.92L79,34.21a11,11,0,0,0,7.82,2.92c4.26,0,8-1.94,8.83-6h0a8.73,8.73,0,0,0,.15-1.65C95.77,21.32,85.05,24.05,85.05,19.81Z"/><polygon class="cls-1" points="130.31 31.12 130.31 36.54 135.44 36.54 135.44 31.12 135.44 27.47 145.14 27.47 145.14 22.73 135.44 22.73 135.44 18 145.93 18 145.93 13.26 130.31 13.26 130.31 31.12"/><polygon class="cls-1" points="207.12 31.12 207.12 36.54 212.05 36.54 212.05 31.12 212.05 20.7 207.12 20.7 207.12 31.12"/><rect class="cls-1" x="207.12" y="13.26" width="4.93" height="4.93"/><path class="cls-1" d="M168.59,19.81c0-1.75,2-2.4,3.45-2.4A5,5,0,0,1,175.76,19l3.52-3.85a10.56,10.56,0,0,0-7.14-2.43c-4.57,0-8.88,2.6-8.88,7.56,0,7.76,10.92,5.46,10.92,9.74a2,2,0,0,1-.37,1.15h0a4,4,0,0,1-3.18,1.28,5.73,5.73,0,0,1-3.58-1.29h0a5.42,5.42,0,0,1-.88-.91l-.84.92-2.81,3.09a11,11,0,0,0,7.82,2.92c4.27,0,8-1.94,8.83-6h0a8.73,8.73,0,0,0,.15-1.65C179.31,21.32,168.59,24.05,168.59,19.81Z"/><polygon class="cls-1" points="183.61 17.8 190.25 17.8 190.25 31.12 190.25 36.54 195.38 36.54 195.38 31.12 195.38 17.8 202.03 17.8 202.03 13.26 183.61 13.26 183.61 17.8"/><rect class="cls-1" x="152.1" y="13.26" width="4.93" height="4.93"/><path class="cls-2" d="M11,21.35a75.73,75.73,0,0,0,7.7-3.85,52.77,52.77,0,0,1,6.93.94,71.6,71.6,0,0,1-8.66,4.12,33.77,33.77,0,0,0-5.75-1.19l-.22,0Zm9.86-5.14c2.51-1.55,4.94-3.24,7.36-5.08v.08a57.45,57.45,0,0,1,7.09.94,94.25,94.25,0,0,1-7.94,5.28,34.53,34.53,0,0,0-5.5-1.1l-1-.12Zm9-6.34c2.55-2,5.11-4.17,7.76-6.51a51.86,51.86,0,0,1,7.23,1c-2.63,2.32-5.32,4.57-8.09,6.69a34.14,34.14,0,0,0-5.12-1c-.66-.08-1.27-.15-1.78-.19Zm16.67-5a27.67,27.67,0,0,1,6.17,2.93c-2.64,2.33-5.35,4.59-8.14,6.72a28.56,28.56,0,0,0-6.12-2.92c.57-.44,1.14-.89,1.71-1.36,3.32-2.67,5.85-4.9,6.38-5.37ZM43.24,15.46A94,94,0,0,1,35,20.93a28.24,28.24,0,0,0-5.77-2.87c2.56-1.58,5.12-3.38,7.82-5.44l.08,0a27.49,27.49,0,0,1,6.1,2.81Zm-9.69,6.31a71.57,71.57,0,0,1-9.06,4.3,27.87,27.87,0,0,0-5.44-2.79A67.05,67.05,0,0,0,27.67,19a28.91,28.91,0,0,1,5.88,2.76ZM22.72,26.72c-4.39,1.5-10.36,2.88-10.36,2.88A28.78,28.78,0,0,0,7.43,27,89.87,89.87,0,0,0,17,24.07a27.94,27.94,0,0,1,5.68,2.65ZM53.92,8.63a32.58,32.58,0,0,1,6.38,6.09c-2.62,2.34-5.31,4.6-8.08,6.73a33.74,33.74,0,0,0-6.44-6.1c.73-.56,1.46-1.14,2.21-1.75,2.75-2.21,4.95-4.11,5.93-5ZM51,22.36A95.31,95.31,0,0,1,42.67,28a33.84,33.84,0,0,0-6.28-6.1,92.8,92.8,0,0,0,8.14-5.58A32.66,32.66,0,0,1,51,22.36ZM24.23,27.71a32.85,32.85,0,0,1,6.46,6.06c-3.69,1.34-9,2.64-10.61,3A35.07,35.07,0,0,0,14,30.74a96.69,96.69,0,0,0,10.27-3Zm1.69-.64A67.36,67.36,0,0,0,35,22.73a32.8,32.8,0,0,1,6.38,6,72.29,72.29,0,0,1-9.2,4.46,34.82,34.82,0,0,0-6.24-6.14ZM61.21,15.88a68.18,68.18,0,0,1,5.29,8.35C63.66,26.73,61,29,58.47,31a63.82,63.82,0,0,0-5.36-8.39c.69-.53,1.38-1.08,2.09-1.65,2.83-2.27,5.07-4.22,6-5Zm-3.93,16A84.69,84.69,0,0,1,48.9,37.6a66.38,66.38,0,0,0-5.28-8.39,94.27,94.27,0,0,0,8.31-5.72,62.56,62.56,0,0,1,5.35,8.4ZM31.63,35a63.37,63.37,0,0,1,5.26,8.28,100.39,100.39,0,0,1-10.61,3.12,70.26,70.26,0,0,0-5.21-8.27A97.65,97.65,0,0,0,31.63,35Zm1.46-.55A68.26,68.26,0,0,0,42.33,30a62.9,62.9,0,0,1,5.29,8.37,68.91,68.91,0,0,1-9.33,4.38,66.88,66.88,0,0,0-5.2-8.31ZM0,25.09c2.82-.75,5.47-1.6,8-2.54a54,54,0,0,1,6.62.86c-3.69,1.25-8.39,2.4-9.74,2.72a33.34,33.34,0,0,0-4.86-1Z"/></svg>